# xmcd CD database file
#
# Track frame offsets:
#	150
#	13127
#	25112
#	36616
#	45565
#	55463
#	67731
#	81948
#	97686
#	111855
#	125113
#	136572
#	151408
#	165848
#	179859
#	192333
#	206063
#	218518
#
# Disc length: 3092 seconds
#
# Revision: 5
# Processed by: cddbd v1.5.2PL0 Copyright (c) Steve Scherf et al.
# Submitted via: CDex 1.70beta2
#
DISCID=f50c1212
DTITLE=Frank Sinatra - The Collection
DYEAR=2006
DGENRE=Jazz
TTITLE0=Young At Heart
TTITLE1=Love And Marrage
TTITLE2=My Funny Valentine
TTITLE3=They Can't Take That Away From Me
TTITLE4=I've Got The World On A String
TTITLE5=I Could Write A Book
TTITLE6=Nevertheless (I'm In Love With You)
TTITLE7=The Birth Of The Blues
TTITLE8=Three Coins In The Fountain
TTITLE9=Begin The Beguine
TTITLE10=The Coffee Song
TTITLE11=The Things We Did Last Summer
TTITLE12=Time After Time
TTITLE13=Some Enchanted Evening
TTITLE14=All Of Me
TTITLE15=One For My Baby (And One More For The Road)
TTITLE16=Saturday Night (Is The Lonliest Night Of Of The Week)
TTITLE17=Love Is The Tender Trap
EXTD=YEAR: 2006
EXTT0=
EXTT1=
EXTT2=
EXTT3=
EXTT4=
EXTT5=
EXTT6=
EXTT7=
EXTT8=
EXTT9=
EXTT10=
EXTT11=
EXTT12=
EXTT13=
EXTT14=
EXTT15=
EXTT16=
EXTT17=
PLAYORDER=
